<?xml version="1.0" standalone="no"?>
<!DOCTYPE svg PUBLIC "-//W3C//DTD SVG 20010904//EN"
 "http://www.w3.org/TR/2001/REC-SVG-20010904/DTD/svg10.dtd">
<svg version="1.0" xmlns="http://www.w3.org/2000/svg"
 width="350.000000pt" height="355.000000pt" viewBox="0 0 350.000000 355.000000"
 preserveAspectRatio="xMidYMid meet">

<g transform="translate(0.000000,355.000000) scale(0.100000,-0.100000)"
fill="#000000" stroke="none">
<path d="M1413 3536 c-311 -60 -568 -267 -675 -545 -21 -57 -26 -62 -63 -71
-358 -91 -616 -389 -667 -770 -28 -210 40 -456 176 -637 l47 -62 -16 -58 c-26
-94 -31 -283 -11 -383 39 -191 115 -332 255 -470 108 -107 200 -165 334 -211
136 -46 292 -61 422 -40 49 9 51 8 95 -33 118 -109 257 -187 405 -227 105 -29
316 -32 419 -6 287 72 520 267 625 525 l27 67 81 26 c303 99 529 339 605 644
30 123 30 314 -1 430 -27 101 -95 242 -155 322 l-47 62 16 58 c23 82 31 266
15 360 -48 300 -259 568 -539 684 -142 59 -334 83 -476 60 -49 -9 -51 -8 -95
33 -118 110 -259 189 -405 226 -103 27 -275 34 -372 16z m285 -232 c80 -16
216 -76 266 -117 l29 -23 -377 -218 c-207 -120 -383 -227 -391 -239 -13 -18
-15 -96 -15 -539 0 -285 -3 -518 -7 -518 -5 0 -73 38 -153 84 l-145 84 -3 453
c-3 513 0 541 68 677 69 137 170 237 305 302 137 67 276 84 423 54z m933 -301
c199 -69 346 -215 416 -415 21 -58 27 -98 31 -191 2 -65 1 -122 -4 -126 -5 -5
-173 87 -374 204 -201 116 -378 215 -393 219 -16 4 -40 1 -59 -7 -18 -8 -221
-123 -450 -255 -230 -133 -422 -242 -428 -242 -6 0 -10 60 -10 170 l0 170 38
24 c58 38 671 390 731 420 146 75 340 86 502 29z m-1944 -1229 c7 -11 213
-137 458 -279 l446 -257 -28 -17 c-15 -9 -85 -50 -154 -89 l-125 -72 -375 216
c-409 236 -421 244 -495 321 -210 219 -240 563 -72 821 55 85 160 180 250 226
l73 38 5 -444 c4 -318 8 -449 17 -464z m1904 500 c206 -119 398 -234 427 -256
113 -87 208 -246 238 -398 30 -150 4 -309 -73 -450 -52 -94 -178 -216 -273
-264 l-75 -37 -5 443 c-4 321 -8 449 -17 464 -7 12 -208 134 -452 275 -243
140 -441 257 -441 261 0 5 286 177 296 178 1 0 170 -97 375 -216z m-645 -166
l194 -112 0 -221 0 -220 -195 -113 -194 -113 -178 102 c-98 56 -186 109 -195
117 -16 14 -18 38 -18 227 0 180 2 215 16 225 13 12 364 218 372 220 2 0 91
-50 198 -112z m504 -292 l145 -84 3 -453 c3 -514 0 -541 -68 -677 -139 -275
-434 -419 -732 -357 -76 16 -213 77 -262 118 l-29 23 364 210 c200 115 376
221 392 236 l27 26 0 521 c0 287 3 521 8 521 4 0 72 -38 152 -84z m-310 -625
l0 -170 -27 -19 c-50 -35 -692 -402 -755 -432 -95 -45 -193 -63 -307 -57 -279
14 -512 191 -601 457 -24 69 -41 294 -24 309 5 5 176 -88 379 -206 283 -165
378 -216 406 -216 37 -2 92 28 674 367 127 74 236 135 243 135 9 1 12 -39 12
-168z"/>
</g>
</svg>
